<?xml version="1.0" encoding="utf-8"?>
<!-- Generator: Adobe Illustrator 24.3.0, SVG Export Plug-In . SVG Version: 6.00 Build 0)  -->
<svg version="1.1" id="Layer_1" xmlns="http://www.w3.org/2000/svg" xmlns:xlink="http://www.w3.org/1999/xlink" x="0px" y="0px"
	 viewBox="0 0 220 220" style="enable-background:new 0 0 220 220;" xml:space="preserve">
<style type="text/css">
	.st0{fill:none;stroke:#000000;stroke-miterlimit:10;}
	.st1{fill:none;}
</style>
<path class="st0" d="M171.9,216.9H10.6c-2.7,0-5.2-1.2-7-3.3c-1.7-2.1-2.4-4.8-1.9-7.5L39.1,10.3C40,6.1,43.7,3,48,3h161.4
	c2.7,0,5.2,1.2,6.9,3.3s2.4,4.8,1.9,7.4l-37.4,195.9C180,213.8,176.3,216.9,171.9,216.9z"/>
<path class="st0" d="M40.9,140.3C61.4,120.3,67,126,87.5,105.9C108,85.8,102.4,80.1,122.9,60s26.1-14.4,46.6-34.5"/>
<path class="st0" d="M42.6,142.1c21.5-18.8,26.8-12.8,48.2-31.6c21.5-18.8,16.2-24.8,37.7-43.6s26.8-12.8,48.3-31.6"/>
<path class="st0" d="M44.2,143.8c22.5-17.5,27.4-11.2,49.9-28.7c22.5-17.5,17.6-23.8,40.1-41.3s27.4-11.2,49.9-28.7"/>
<path class="st0" d="M45.9,145.6c23.5-16.2,28-9.6,51.6-25.8c23.5-16.2,19-22.8,42.5-39S168,71.2,191.5,55"/>
<path class="st0" d="M47.5,147.3c24.5-14.9,28.7-8.1,53.2-23c24.5-14.9,20.4-21.7,44.9-36.6s28.7-8.1,53.2-23"/>
<path d="M72.1,135.3c-1.3,0.5-4.8,0.4-5.6-0.3c-1-0.8-1.7-2.3-0.6-3.6c2-2.3,3.8-1,4.2,1.4c0.2,1.2-1.5,1.6-0.4,2
	c1.8,0.7,3.9-0.8,3.5-1.9c0.1-0.7-1.7-3.4-2.9-5.7c0,0,0,0,0,0c-1.5,0.5-5,1.6-7.4,1.6c-5.9,0-8.8-2.9-10.3-5.4
	c-2.9-5-0.7-12.5,1.6-16.6l0.5-0.8c0.4-0.8,0.8-1.5,1.2-2.2c-1.3-2.1-2.7-4.1-3.7-6.2c-1.9-4.3-2.4-7.7-0.2-12.9l0.9-1.7l1.5,1.7
	c0-0.1,2.8,3.2,3.9,5.9c2.2,5.4,0.7,8.9-0.4,13.4c1.2,1.9,2.5,4.1,3.7,6c0,0,0,0,0.1,0c4.1-1.7,9.6-2.3,13,2.8
	c1.7,2.6,1.9,7.5,0.3,10.7c-0.3,0.7-2.7,2.5-3.5,3.1c1.7,3.3,3.3,5.1,2.9,6.5C74.1,134.3,73.4,134.8,72.1,135.3z M57,105.1
	c-0.1,0.2-0.3,0.5-0.4,0.7l-0.5,0.8c-1.8,3.3-3,11.1-0.7,15c1.6,2.7,2.9,3.8,6.3,5.1c1.9,0.7,6.5-0.6,7.5-1.3
	c-2-3.5-4.9-8.4-7.2-11.9c-0.7,0.7-1.7,1.9-2,2.7c-0.4,1-0.3,2,0.2,3c1.5,2.8,4.6,4.3,4.6,4.3c1.1,0.6,1.8,1,1.5,1
	c-1,0.1-6,0.1-8.3-4.5c-0.9-1.7-1-3.6-0.3-5.4c0.5-1.4,1.5-2.8,2.8-3.8C59.6,109.5,57.8,106.5,57,105.1z M63.3,112.5
	c2.8,4.5,5.6,9,7.3,12c0.2-0.2,2.2-1.5,2.4-1.8c0.8-1.6,1-6-0.6-8.3C69.2,110.2,64.7,112,63.3,112.5z M53.3,84.5
	c-0.8,2.3-2,8.1,0.9,13.3c0.8,1.4,1.7,2.9,2.5,4.4c1.1-3.1,2.7-7.4,0.2-12.5C56.2,88.1,55.3,86.6,53.3,84.5z"/>
<path d="M149.3,104.2L149.3,104.2c0.2,1.5-1.2,3.1-3.1,3.6c-2.1,0.5-4.1-0.4-4.5-2.1c-0.4-1.7,0.9-3.4,3-3.9c1.5-0.3,2.9,0,3.8,0.8
	l0.7-11.9l-16.1,4.4l-0.8,13.7l0,0c-0.1,1.4-1.4,2.6-3.1,3c-2.1,0.5-4.1-0.4-4.5-2.1c-0.4-1.6,0.9-3.4,3-3.9c1.5-0.3,2.9,0,3.8,0.9
	l0.9-16.1l18-4.6L149.3,104.2z"/>
<g>
	<path class="st1" d="M115,150.4"/>
	<path d="M102.8,87.7l-0.2-0.7l-2.6,0.8v-6.2l2.6-0.8l-0.2-0.7l-0.2-0.7L100,80v-2.7h-1.5v3.2l-6,1.8v-3.2H91v3.6l-3.9,1.2l0.4,1.4
		l3.5-1.1v6.2l-3.5,1.1l0.2,0.7L88,93l3-0.9v2.7h1.5v-3.2l6-1.8v3.2h1.5v-3.6l3-0.9L102.8,87.7z M98.5,88.2l-6,1.8v-6.2l6-1.8V88.2z
		"/>
</g>
<path d="M156.8,48.3c0.1,1.9-0.4,2.8-0.7,3.2c-0.2,0.3-0.7,1.2-0.6,0.2c0.1-0.9,1.4-4.3-1.4-6.3c-0.8-0.6-1.9-0.7-3-0.9
	c-1.1-0.2-1.7-0.4-2.8-0.2l5.5,16.6c0,0,0.9,3-2.5,4.5c-3.4,1.5-4.6-0.3-4.4-1.9c0.2-1.7,3.2-4,5.7-3.3l-6.6-20.1
	c0,0,4.1,1.5,6.3,2.7C155,44.2,156.6,45.2,156.8,48.3z"/>
<path d="M75.6,201.8c-0.1,0.1-0.3,0.2-0.7,0.3l-1.1-0.7l-1.4-1.7l-0.4-1c-0.1-0.6-0.2-1.2-0.4-1.6c-0.4-0.4-0.6-1.3-0.6-2.7
	c0-0.2,0-0.4,0.1-0.5c0.1-0.1,0.2-0.7,0.3-1.6l-0.5-1.1l0.1-0.5l-0.1-1l0-1.1l-0.3-0.3l0.3-0.8l-0.3-0.4l0.3-0.5l-0.3-1.1V184
	l-0.4-1c0-0.4,0-0.8-0.1-1.1c0-0.3-0.3-0.7-0.9-1.1l-0.6,0.8l-0.6,0.3l-1.7,2.4l-1.5,1.8l-0.5,1.1l-1.4,1.6l-1.9,1.4l-0.2,0.8
	l-1,0.4l-0.1,0.7l-1.2,0.6l-0.4,1l-0.8,0.3l-1.2,2.1c-0.5,0-0.7,0.4-0.8,1.2c-0.1,0-0.2,0-0.3,0c-0.1-0.3-0.4-0.7-0.8-1.3l0.1-0.7
	l-0.3-0.4l0.3-0.4l-0.3-0.4c-0.1-0.1-0.2-0.4-0.4-1.1l-0.7-0.6c-0.1,0-0.3-0.2-0.5-0.6s-0.4-0.6-0.5-0.7c-0.1-0.2-0.3-0.6-0.4-1.2
	l-0.5-0.6l-1-1.9l-1-1.2l-0.3-0.7l-1-1.1l-1-1.6c-0.6-0.9-1-1.3-1.3-1.3c-0.2,0-0.4,0-0.6,0.1c-0.2,0.1-0.3,0.1-0.4,0.1h-0.1v0.6
	c0,1.1-0.1,1.9-0.4,2.5l-1.1,2L43,188l-0.3,0.9l-1,3.4l-0.4,1.1l-0.2,0.7l-0.6,1.6l-0.8,1.4l0.1,1.1l-0.9,2.1c0,0.3,0.2,0.5,0.5,0.7
	c-0.7,0.8-1.1,1.2-1.3,1.2c-0.1,0-0.2-0.1-0.4-0.4c-0.2-0.3-0.3-0.6-0.3-0.9c0-0.1,0.1-0.3,0.2-0.6s0.2-0.8,0.3-1.3s0.2-0.8,0.4-1.1
	c0.2-0.2,0.3-0.3,0.3-0.4v-1.2c0-0.7,0.3-1.2,1-1.5v-0.8l0.3-1.2c0-0.1,0-0.2,0-0.3c0-0.2,0.1-0.5,0.3-1c0.2-0.3,0.3-0.6,0.3-0.9
	v-1.1l0.4-0.8l0.9-3l-0.2-1.3l0.4-0.3l0.2-0.6l0-2.2c0.2-0.9,0.2-1.5,0.2-1.9c0-0.4-0.2-1-0.7-1.9l0.4-0.8l-0.2-0.4
	c0.1-0.1,0.2-0.2,0.2-0.4c0.5,0,0.8-0.1,0.9-0.3l0.5,0l0.6,0.4v0.4l0.6,0.4l0.1,1.2l0.5,0.4l0.2,0.7h0.2c-0.1,0.1-0.1,0.2-0.1,0.3
	c0,0.3,0.3,0.5,0.8,0.5c0.2,0.1,0.4,0.3,0.7,0.5l0.1,0.7l0.6,0.6l0.3,1.2l2.3,2.4l0.4,1.3l0.8,0.6l0.7,2l1.7,3.1
	c0.4,0.6,0.8,1.1,1.3,1.6l0.1-0.7h0.9l0.6-1.3l1.1-0.7c0.2-0.3,0.5-0.6,0.9-1v-0.4c0.4-0.2,0.7-0.5,1.1-0.7c0.4-0.2,0.6-0.3,0.6-0.4
	c0,0,0,0,0,0c0-0.2,0.1-0.5,0.3-0.8h0.5l0.4-0.6c0.1,0.2,0.2,0.2,0.3,0.2c0,0,0,0,0-0.1c0,0,0-0.3-0.1-0.9c0.7-1,1.4-1.5,2-1.5v-0.6
	c0-0.3,0.3-0.6,0.9-0.8l0.3,0.1l0.1-0.3l1.1-1.7l0.1-0.3h0.3c0.5-0.5,0.9-1.1,1.1-1.9c0.2-0.2,0.5-0.2,0.8-0.2c0.1,0,0.2,0,0.2,0.1
	l0.3-0.7l-0.2-1.5l-0.3-0.7c0.4-0.5,0.6-1.1,0.7-1.6c0.4,0,0.6,0.1,0.8,0.2c0.1,0.1,0.3,0.2,0.7,0.2L71,176c0.6,0.5,0.8,0.7,0.9,0.8
	c0,0,0,0.2,0,0.3l0,0.4v1.3l0.3,0.4l-0.3,0.3l0.3,0.1l-0.1,0.5l0.2,0.2l0.1,1.1l0.3,0.2l-0.5,0.7l0.2,0.1l-0.1,1.1l0.4,0.9l-0.1,1.2
	l0.5,1.8c0.1,0.4,0.2,0.9,0.2,1.5c-0.2,0.4-0.4,0.7-0.6,0.9l0.3,0.6c0.1,0.1,0.2,0.2,0.2,0.2s-0.1,0.2-0.2,0.5
	c-0.1,0.2-0.2,0.4-0.3,0.6l0.4,0.4l-0.1,2.7l0.5,1.7v2l0.4,0.4c0.2,0.5,0.4,0.8,0.5,1s0.4,0.5,0.8,0.9
	C75.4,201.3,75.6,201.6,75.6,201.8z M104.1,198.6c0.2,0,0.5,0,0.8,0c0.4,0,0.5,0.1,0.5,0.4c0,0.2-0.2,0.5-0.5,0.8l-0.4,0.2l-0.2,0.3
	c-0.1,0.1-0.4,0.3-0.9,0.5l-0.8,0.2c-0.2,0.2-0.7,0.3-1.6,0.3c-0.1,0-0.3-0.1-0.7-0.2s-0.7-0.2-0.8-0.3l-1.6-1.5l-0.4-1.5l-0.5-0.5
	V197c0-0.5-0.1-0.9-0.3-1.3l0-1.2c0.1-0.6,0.2-0.9,0.2-1.1c0-0.4-0.1-0.7-0.3-1.1l0.1-2.3l-0.6,0.3l-0.3,0.5l-0.5,0.3
	c-0.2,0.1-0.3,0.3-0.5,0.6l-0.4,0c-0.4,0.3-0.6,0.7-0.6,1c-0.5,0.2-0.8,0.5-0.9,0.9c-0.1,0.4-0.4,0.8-0.8,1.2
	c-0.4,0.4-0.7,0.6-0.9,0.7c-0.2,0.1-0.4,0.2-0.5,0.3l-1.4,1.8h-0.1l-1.2,1.4l-0.9,0.5l-0.4,0.6c-0.6,0.2-1.3,0.5-2.1,0.9l-0.8-0.5
	c-0.1,0-0.2,0-0.3,0c-0.2,0-0.3-0.1-0.3-0.3c0-0.1,0-0.2,0-0.3l-0.5-0.3c0-0.1,0.1-0.3,0.2-0.5l-0.7-0.6l0.4-0.5h-0.5l-0.4-1
	l0.4-0.3l-0.5-0.7c0-0.8,0.1-1.2,0.2-1.3l0-0.9c0-0.3,0.1-0.6,0.3-1.1l-0.4-0.3c0.3-0.4,0.4-0.7,0.4-1c0-0.2-0.1-0.5-0.2-0.8
	c0.2-0.1,0.3-0.4,0.3-0.8c0-0.2,0-0.4,0-0.7l-0.2-1.7l0.6-3.5c0-0.6-0.1-1.2-0.2-1.9l-0.2-0.9c0-0.5,0.3-0.8,0.9-0.8l0.7,0.2
	l0.4,0.4l-0.2,1.1l-0.1,2.5l0.1,1.6l-0.3,0.8l0.2,0.5l-0.2,0.8v0.7c-0.1,0-0.2,0.2-0.1,0.3c0,0.2,0.1,0.3,0.1,0.3
	c0,0.2-0.1,0.4-0.2,0.6l0.3,0.4l-0.5,0.6l0.3,0.4l-0.1,0.7l0.1,0.8v1l0.3,0.3l-0.2,1.2c0,0.2,0.1,0.5,0.3,0.8l-0.1,0.5l0.2,0.7
	c0.3,0.2,0.6,0.5,1.1,1c0.4,0,0.7-0.2,1-0.5c0.3-0.3,0.6-0.6,1.1-0.9c0,0-0.1,0-0.2,0c0.5-0.2,0.8-0.5,0.8-0.8
	c0.4,0,0.6-0.1,0.8-0.2l0.1-0.6l0.5-0.2c0.4-0.5,0.9-0.8,1.7-1l0-0.5l0.9-0.8c0.1-0.6,0.4-1,1.1-1l0.2-0.7l0.4-0.2l0.7-1h0.3v-0.3
	l0.5-0.2l0.3-0.7c0.4-0.2,0.8-0.4,1.2-0.6l0.2-0.5l0.4-0.1v-0.3l0.2,0c0.1-0.8,0.4-1.2,0.9-1.2l-0.1-0.1l0.9-2.8h0.2V183h0
	c0.1,0,0.4-0.6,0.9-1.8l0.9-0.1l-0.1,0.2l0.5,1l-0.4,1.9l-0.7,1.1l-0.5,1.9l-0.6,0.4v1.1l-0.4,0.7l0.1,0.8l-0.3,0.3l0.1,2.2
	l-0.2,2.7l0.1,0.3l0,0.4h0.1v0.8c0.5,0.8,0.8,1.3,0.8,1.5l0.7,0.2l0.1,0.4c0.5,0.2,0.9,0.4,1.2,0.6l0.7,0l0.5,0.1l0.8-0.3
	C103.3,199.2,103.7,199,104.1,198.6z M126.2,197.1l-0.3,0.4c-0.1,0.1-0.3,0.6-0.7,1.5l-0.7,0.5l0,0.3h-0.7l-0.6,0.7h-0.9l-0.6,0.3
	c-0.2,0-0.3,0.1-0.5,0.3c-0.2-0.1-0.4-0.1-0.7-0.1c-0.2,0-0.4,0-0.6,0.1v0.3l-0.9-0.1l-0.7,0.1l-0.7-0.1l-0.1,0.1l-0.2-0.1l-0.4,0.1
	h-0.3c-0.2,0-0.5,0-0.7,0.1l-0.5-0.2l-0.4,0.3l-0.2-0.2l-0.4,0.2c-0.4-0.2-0.8-0.4-1.1-0.4c-0.1,0-0.2,0-0.4,0.1
	c-0.2-0.1-0.5-0.2-0.9-0.2l-1.1-0.1c-0.3,0-0.6,0-0.8,0.1l-0.1-0.2l-0.4,0.3c-0.1-0.1-0.2-0.2-0.4-0.2l-0.1-0.3
	c-1,0-1.5-0.8-1.5-2.2l1.1-0.1l0-0.4l0.2-0.3l0.1,0.3h0.3v0.2l0.5-0.2c0.3,0,0.4,0.2,0.4,0.4c0,0.1,0,0.2-0.1,0.4l0.4,0v0.8l1.3,0.2
	l0.5,0.4l0.1-0.2l6.4-0.4l2.2-0.4l0.1-0.2l0.5-0.1l0.1-0.2c0.8-0.1,1.4-0.4,2-0.8l0.1,0.1l0.1-0.3l0.4-0.3l0-0.2l-0.2-0.3l0.1-0.4
	l-0.6-0.5l-0.1-0.4c-0.3-0.1-0.4-0.2-0.5-0.3l-0.2,0.1l-0.5-0.5h-0.2l-0.2-0.3h-0.5c-0.1-0.3-0.3-0.4-0.6-0.4l-0.3,0
	c-0.6,0-1.1-0.2-1.5-0.5h-0.5l-0.6-0.4l-0.3,0.2l-0.1-0.2h-0.3l-0.6-0.5l-1.5-0.6l-0.6-0.5l-1.7-0.3l-0.1-0.1l-1.4-1l-0.6-1.6
	l-0.5-0.8l-0.1-2.3l0.1-0.2c0-0.7,0.2-1.2,0.5-1.7c0.6-0.4,0.9-0.7,1-1.1l0.3,0c0.1-0.4,0.4-0.8,0.9-1.2l0.6-0.5l2.9-1.2l1.5-0.3
	l1.4-0.4l2.3,0.1l0.1,0.3h0.1c0.3,0,0.5,0.1,0.7,0.3v0.4l0.6,0.4c-0.2,0.8-0.3,1.2-0.3,1.3c0,0.3-0.1,0.4-0.4,0.4
	c-0.1,0-0.4-0.4-0.7-1.1l-1.3-0.1l-0.3,0.1c-0.5-0.4-0.8-0.6-0.9-0.6c-0.1,0-0.1,0-0.1,0.1l-0.5,0.3c-0.6,0-1,0.1-1.3,0.4
	c-0.6,0.1-1.1,0.3-1.3,0.6h-0.6l-0.4,0.3c-0.1,0.1-0.4,0.2-1,0.3l-0.2,0.2l-0.3,0.1l-0.7,0.7l-0.5,0.7c-0.5,0.3-0.7,0.5-0.7,0.6
	l-0.5,2.1l0.2,0.1v0.1c0,0.6,0.3,1,0.8,1.4v0.2l1.3,0.8h0.3l0.7,0.7h1l0.6,0.5l1.2,0.1l0.3,0.3l2.2,0.7c0,0.2,0.1,0.3,0.4,0.3
	c0.4,0,0.8,0.1,1.1,0.3c0.3,0.2,0.7,0.3,1,0.4l0.1,0.2l0.4,0.2h1l0.9,0.6c0.1,0.4,0.3,0.7,0.7,0.9l0,0.1l0.2,0.3l0.4,0.1l-0.2,0.4
	C126,196.6,126.1,196.9,126.2,197.1z M138.2,169.2c-0.1,0.3-0.4,0.6-0.9,0.8v0.3l-0.4,0.5c-0.1,0.2-0.3,0.3-0.4,0.3
	c0,0-0.1,0-0.3-0.1l-1.3,1.6l-0.3,0.5l-1.2,0.4l-0.6,0.9l-0.6,0.2c-0.2,0.1-0.5,0.4-1.1,1l-0.3-0.2l0-0.6l1.2-0.5
	c0.2-0.8,0.4-1.3,0.6-1.4c0.3-0.1,0.4-0.2,0.4-0.2v-0.2l0.2-0.1l0.1,0l0.1-0.4h0.2l-0.2-0.4h0.8v-0.7l0.4-0.1l0.2-0.4l0.4-0.1
	l0.4-0.7c0.1,0,0.2-0.1,0.3-0.3h0.3l0-0.5c0.3-0.3,0.5-0.6,0.6-1C137.6,168,138.1,168.5,138.2,169.2z M143.2,194.4l-0.1,0.5
	l-0.5,0.3l-0.2,0.6l-0.7,0.2c-0.2,0.7-0.5,1.1-0.7,1.2l-0.6,0.2l-0.5,0.6c-0.1,0.1-0.4,0.4-0.9,0.9h-0.3c-0.2,0.3-0.6,0.5-1.1,0.6
	c-0.4,0.4-0.6,0.7-0.6,0.8c-0.2,0.2-0.6,0.3-0.9,0.4c-0.4,0.1-0.6,0.1-0.7,0.2l-0.2,0.3h-0.8l-0.4,0.3l-1.2-0.9l-0.7-1.6l-0.1-2.6
	l-0.1-0.5l0.5-4.1l0.3-0.2l-0.1-2.6c0-0.3,0-0.6,0.1-0.9s0.2-0.6,0.3-1.1l0.2-0.1c0-0.5-0.1-0.9-0.3-1.4l0.2-0.7v-0.9l0.2-0.3
	c0-0.2-0.1-0.5-0.2-0.8c-0.1-0.3-0.1-0.5-0.1-0.5c0-0.3,0.1-0.4,0.2-0.4c0,0,0.1,0,0.1,0c-0.2-0.5-0.3-0.9-0.3-1
	c0-0.2,0.1-0.4,0.3-0.4c0.1,0,0.2,0,0.3,0.1s0.3,0.1,0.4,0.1c0,0,0.1,0,0.2-0.1c0-0.3,0.1-0.4,0.3-0.4c0.2,0,0.3,0,0.3,0.1
	c0,0.1,0.1,0.4,0.1,0.9l0.5,0.2l-0.4,0.6l-0.5,3.2l0.4,0.8c0,0.4-0.2,0.7-0.5,1l-0.1,0.6l0.1,0.6l-0.6,2.1l0,0.2l-0.2,1.7v1.2
	l-0.4,0.8l0.1,0.7l-0.1,1.2c0,0.9,0.1,1.7,0.4,2.3l0,0.3l0.4,0.3l0.5-0.1l0.6,0.2l0.7-0.3c0.2-0.1,0.5-0.3,0.9-0.4l0.3-0.3l0.1,0.1
	l0.3-0.4l0.5-0.1c0.4-0.3,0.8-0.5,1.2-0.7c0.1-0.2,0.4-0.3,0.7-0.4l0.3-0.5l0.6,0l-0.1-0.5h0.2l0.1-0.3l1.1-0.5l0.1-0.6l1,0
	C143.1,194.2,143.1,194.3,143.2,194.4z M163.1,193l-0.8,0.9c0,0.3,0,0.5-0.1,0.7c0,0.2-0.1,0.4-0.2,0.5c-0.1,0.2-0.2,0.3-0.4,0.5
	c-0.1,0.1-0.2,0.4-0.5,0.9c-0.2,0.3-0.4,0.7-0.6,0.9c-0.2,0.3-0.4,0.6-0.7,0.8c-0.3,0.2-0.5,0.4-0.9,0.6c-0.5,0.2-0.9,0.5-1.2,0.9
	l-0.4,0.1c-0.1,0-0.4,0.2-0.9,0.6l-0.6,0l-1.2,0.9l-0.4-0.2l-1.1,0.5l-1-0.2l-0.3,0.4l-0.6-0.1l-0.6,0.1l-0.2-0.2l-0.7-0.1
	c-0.3,0-0.5-0.2-0.7-0.3l-0.8-0.7l-0.7-1.1c-0.3-0.4-0.5-0.8-0.5-1.3v-0.2l-0.5-0.9v-0.8l-0.2-0.3l0.1-1l-0.2-0.8l0.3-0.8l-0.2-0.4
	l0.5-0.8l-0.1-1.1l0.1-0.4c0.1-0.4,0.2-0.7,0.5-1l0-1.2l0.4-0.3l-0.1-0.3l0.3-0.5c0.1-0.6,0.4-1.7,1.1-3.2l0.9-0.9l0.2-0.6l0.4-0.7
	c0.1-0.4,0.3-0.8,0.5-1.1c0.3,0,0.7-0.1,1-0.4c0-0.6,0.5-0.8,1.5-0.8c0.1,0,0.5,0.1,1,0.2s0.8,0.4,1,0.8c0.5,0,0.8,0.2,0.8,0.5
	l1.4,0l0,0.5l0.3,0.3l0,0.6l0.4,0.5l0,0.6l0.1,0.4l-0.1,1l0.2,0.3v0.5l0.1,1.1l-1,0.5l-1.1-1.2l-0.1-1.6l-0.2-0.6v-0.6l-0.6-0.7
	c-0.2-0.2-0.6-0.5-1.1-0.9l-0.7,0.3h-0.6c-0.4,0-0.7,0.2-1.1,0.4c-0.3,0.2-0.7,0.7-1.1,1.5c-0.4,0.7-0.8,1.2-1.1,1.4l0,0.7l-0.4,0.3
	v1l-0.5,0.7l-0.2,0.7c-0.2,0.4-0.3,0.8-0.4,1.2s-0.2,0.7-0.3,0.7l0,0.8l-0.4,1.1l0.1,0.8l-0.2,0l0,1.9l-0.1,0l0.1,0.4l-0.2,0.2
	l0.7,0.9c0.1,0.1,0.2,0.4,0.3,0.8l-0.1,0.1l0.5,0.7l0.4,0.1l0,0.5l2.7,0.6c0.2-0.2,0.4-0.4,0.6-0.4c0.1,0,0.3,0,0.5,0.1
	c0.3-0.2,0.5-0.3,0.7-0.3l0.4,0c0,0,0.1-0.1,0.3-0.2c0.2-0.1,0.5-0.2,1-0.2c0.3-0.6,0.6-0.9,1.1-0.9c0.2,0,0.3,0,0.4,0
	c0.8-0.4,1.3-0.7,1.3-1c0.2-0.4,0.5-0.5,1.1-0.5h0.2c1.4-1.5,2-2.3,2-2.5c0.4-0.3,0.7-0.8,0.9-1.4l0.4-0.3l0-0.7
	C163,191.9,163.1,192.3,163.1,193z"/>
</svg>
