<?xml version="1.0" encoding="utf-8"?>
<!-- Generator: Adobe Illustrator 24.3.0, SVG Export Plug-In . SVG Version: 6.00 Build 0)  -->
<svg version="1.1" id="Layer_1" xmlns="http://www.w3.org/2000/svg" xmlns:xlink="http://www.w3.org/1999/xlink" x="0px" y="0px"
	 viewBox="0 0 220 220" style="enable-background:new 0 0 220 220;" xml:space="preserve">
<style type="text/css">
	.st0{fill:none;stroke:#000000;stroke-miterlimit:10;}
</style>
<path class="st0" d="M171.9,216.9H10.6c-2.7,0-5.2-1.2-7-3.3c-1.7-2.1-2.4-4.8-1.9-7.5L39.1,10.3C40,6.1,43.7,3,48,3h161.4
	c2.7,0,5.2,1.2,6.9,3.3s2.4,4.8,1.9,7.4l-37.4,195.9C180,213.8,176.3,216.9,171.9,216.9z"/>
<path class="st0" d="M110.1,72l-1.3-0.3l-1.3,0.3l-1.2-0.1l-1.2,0.2l-1.3-0.3l-1.2,0.3l-1.3-0.2l-1.2-0.1l-1.2,0.1l-1.3,0.3L96.4,72
	l-1.2-0.2l-1.3,0.1l-1.2,0.2h-1.2h-1.3L89,71.7L87.8,72l-1.3-0.5l-1.2,0.7H84l-1.2-0.4l-1.2,0.4l-1.3-0.7L79.1,72l-1.3-0.2l-1.2-0.2
	L75.4,72h-1.3h-1.2l-1.3-0.2l-1-0.1l-0.1-1l-0.3-1.3l0.1-1.2l0.3-1.2l-0.3-1.3l0.3-1.2l0.1-1.3L70.3,62l0.3-1.2l-0.5-1.3l0.3-1.2
	v-1.2v-1.3l-0.3-1.2l0.1-1.2l0.4-1.3l-0.1-1.2l-0.1-1.3l0.1-1.2l-0.4-1.2l0.4-1.3l-0.1-1.2l0.4-1.2v-1.3L70.3,41l0.3-1.3L70,38.5
	l0.6-1.2L70.4,36l-0.3-1.2l0.2-1.3v-1.3l1.3-0.3l1.3,0.6l1.2-0.2l1.2-0.1l1.3-0.2h1.2l1.2,0.4l1.3,0.2h1.2l1.2-0.7l1.3,0.6l1.2,0.1
	l1.2-0.6l1.3,0.3l1.2,0.1l1.3-0.1l1.2-0.2l1.2,0.4l1.3,0.1l1.2-0.3l1.2-0.3l1.3,0.3l1.2,0.1l1.3,0.1l1.2-0.2l1.2,0.4l1.3-0.2L105,32
	h1.3l1.2,0.7l1.3-0.5l1.4-0.1l-0.5,1.4l0.6,1.3l-0.5,1.2l-0.1,1.2l0.5,1.3l-0.3,1.2l-0.2,1.2l0.2,1.3l-0.2,1.2l0.6,1.2l-0.1,1.3
	l0.1,1.2l-0.2,1.2l-0.1,1.3l0.3,1.2l-0.3,1.3l-0.2,1.2l0.2,1.2l0.3,1.3l-0.5,1.2l0.4,1.2l-0.2,1.3l0.1,1.2V62v1.2v1.2l-0.1,1.3
	l-0.3,1.2l0.4,1.3l-0.1,1.2l0.2,1.2L110.1,72z M110.1,72l-1.3-0.3l-1.3,0.3l-1.2-0.1l-1.2,0.2l-1.3-0.3l-1.2,0.3l-1.3-0.2l-1.2-0.1
	l-1.2,0.1l-1.3,0.3L96.4,72l-1.2-0.2l-1.3,0.1l-1.2,0.2h-1.2h-1.3L89,71.7L87.8,72l-1.3-0.5l-1.2,0.7H84l-1.2-0.4l-1.2,0.4l-1.3-0.7
	L79.1,72l-1.3-0.2l-1.2-0.2L75.4,72h-1.3h-1.2l-1.3-0.2l-1-0.1l-0.1-1l-0.3-1.3l0.1-1.2l0.3-1.2l-0.3-1.3l0.3-1.2l0.1-1.3L70.3,62
	l0.3-1.2l-0.5-1.3l0.3-1.2v-1.2v-1.3l-0.3-1.2l0.1-1.2l0.4-1.3l-0.1-1.2l-0.1-1.3l0.1-1.2l-0.4-1.2l0.4-1.3l-0.1-1.2l0.4-1.2v-1.3
	L70.3,41l0.3-1.3L70,38.5l0.6-1.2L70.4,36l-0.3-1.2l0.2-1.3v-1.3l1.3-0.3l1.3,0.6l1.2-0.2l1.2-0.1l1.3-0.2h1.2l1.2,0.4l1.3,0.2h1.2
	l1.2-0.7l1.3,0.6l1.2,0.1l1.2-0.6l1.3,0.3l1.2,0.1l1.3-0.1l1.2-0.2l1.2,0.4l1.3,0.1l1.2-0.3l1.2-0.3l1.3,0.3l1.2,0.1l1.3,0.1
	l1.2-0.2l1.2,0.4l1.3-0.2L105,32h1.3l1.2,0.7l1.3-0.5l1.4-0.1l-0.5,1.4l0.6,1.3l-0.5,1.2l-0.1,1.2l0.5,1.3l-0.3,1.2l-0.2,1.2
	l0.2,1.3l-0.2,1.2l0.6,1.2l-0.1,1.3l0.1,1.2l-0.2,1.2l-0.1,1.3l0.3,1.2l-0.3,1.3l-0.2,1.2l0.2,1.2l0.3,1.3l-0.5,1.2l0.4,1.2
	l-0.2,1.3l0.1,1.2V62v1.2v1.2l-0.1,1.3l-0.3,1.2l0.4,1.3l-0.1,1.2l0.2,1.2L110.1,72z M109.9,111.7h-2.1l-2.2,0.4l-2.2-0.5l-2.2,0.2
	l-2.2-0.3l-2.2,0.4l-2.2,0.3h-2.2l-2.2-0.4H88l-2.2-0.3l-2.2,0.2l-2.2,0.2h-2.2l-2.2,0.2h-2.2h-2.2l-2-0.4l-0.2-2l-0.2-2.2l0.4-2.2
	l-0.1-2.2l-0.4-2.2l0.2-2.2l-0.1-2.2l0.3-2.2l-0.3-2.2l0.5-2.2l-0.6-2.2l0.4-2.2l0.3-2.2l-0.2-2.2l-0.1-2.2L70,76.7l0.4-2.2v-2.3
	l2.2-0.1l2.2,0.2l2.2,0.2l2.2-0.6l2.2,0.3l2.2,0.2l2.2-0.2H88l2.2-0.3l2.2,0.4l2.2-0.4l2.2,0.1H99h2.2l2.2,0.3l2.2-0.4h2.2l2.4,0.2
	l-0.1,2.4l0.1,2.2l-0.4,2.1l0.5,2.3l-0.3,2.1l-0.1,2.2l0.2,2.3l0.2,2.1l-0.4,2.3l0.1,2.1l-0.2,2.2l0.3,2.3l-0.4,2.1l0.5,2.3
	l-0.6,2.2l0.6,2.2l-0.2,2.2L109.9,111.7z M109.9,111.7h-2.1l-2.2,0.4l-2.2-0.5l-2.2,0.2l-2.2-0.3l-2.2,0.4l-2.2,0.3h-2.2l-2.2-0.4
	H88l-2.2-0.3l-2.2,0.2l-2.2,0.2h-2.2l-2.2,0.2h-2.2h-2.2l-2-0.4l-0.2-2l-0.2-2.2l0.4-2.2l-0.1-2.2l-0.4-2.2l0.2-2.2l-0.1-2.2
	l0.3-2.2l-0.3-2.2l0.5-2.2l-0.6-2.2l0.4-2.2l0.3-2.2l-0.2-2.2l-0.1-2.2L70,76.7l0.4-2.2v-2.3l2.2-0.1l2.2,0.2l2.2,0.2l2.2-0.6
	l2.2,0.3l2.2,0.2l2.2-0.2H88l2.2-0.3l2.2,0.4l2.2-0.4l2.2,0.1H99h2.2l2.2,0.3l2.2-0.4h2.2l2.4,0.2l-0.1,2.4l0.1,2.2l-0.4,2.1
	l0.5,2.3l-0.3,2.1l-0.1,2.2l0.2,2.3l0.2,2.1l-0.4,2.3l0.1,2.1l-0.2,2.2l0.3,2.3l-0.4,2.1l0.5,2.3l-0.6,2.2l0.6,2.2l-0.2,2.2
	L109.9,111.7z M149.6,111.8l-2.8-0.3L144,112l-2.9-0.4l-2.8,0.5l-2.8-0.6h-2.9h-2.8L127,112l-2.8-0.2l-2.9,0.1l-2.8-0.2l-2.8,0.4
	l-2.9-0.2l-2.5-0.3l-0.4-2.5l-0.3-2.9l0.5-2.8l-0.3-2.8l0.2-2.9l-0.1-2.8l0.1-2.8l-0.1-2.9l0.1-2.8l0.1-2.8l0.1-2.8l-0.3-2.9
	l0.4-2.8l-0.2-2.8l2.7,0.3l2.9-0.4l2.8,0.4h2.8l2.8-0.4l2.9-0.3l2.8,0.5l2.8-0.4l2.8,0.4l2.9,0.2l2.8-0.5l2.8,0.1l2.9,0.3h2.6v2.6
	l0.4,2.8l0.1,2.8l-0.1,2.9l-0.3,2.8v2.8l0.5,2.9l-0.2,2.8l-0.5,2.8l0.4,2.8l0.3,2.9l-0.2,2.8l-0.2,2.8L149.6,111.8L149.6,111.8z
	 M149.6,111.8l-2.8-0.3L144,112l-2.9-0.4l-2.8,0.5l-2.8-0.6h-2.9h-2.8L127,112l-2.8-0.2l-2.9,0.1l-2.8-0.2l-2.8,0.4l-2.9-0.2
	l-2.5-0.3l-0.4-2.5l-0.3-2.9l0.5-2.8l-0.3-2.8l0.2-2.9l-0.1-2.8l0.1-2.8l-0.1-2.9l0.1-2.8l0.1-2.8l0.1-2.8l-0.3-2.9l0.4-2.8
	l-0.2-2.8l2.7,0.3l2.9-0.4l2.8,0.4h2.8l2.8-0.4l2.9-0.3l2.8,0.5l2.8-0.4l2.8,0.4l2.9,0.2l2.8-0.5l2.8,0.1l2.9,0.3h2.6v2.6l0.4,2.8
	l0.1,2.8l-0.1,2.9l-0.3,2.8v2.8l0.5,2.9l-0.2,2.8l-0.5,2.8l0.4,2.8l0.3,2.9l-0.2,2.8l-0.2,2.8L149.6,111.8L149.6,111.8z
	 M149.4,150.9l-4.7,0.4l-5-0.2l-4.9-0.2l-5,0.3l-4.9-0.1l-5,0.4l-4.9-0.6l-5.1,0.3l-0.2-5l0.4-4.9l-0.1-5l0.1-4.9l0.1-5l-0.2-4.9
	l0.2-5l-0.4-5.1h5.1l5,0.2l4.9-0.2l5,0.3l5,0.2h4.9l5-0.2l4.9-0.1l-0.1,4.9l-0.2,5l0.5,4.9l0.1,5l-0.2,4.9l-0.1,5l0.1,4.9
	L149.4,150.9z M149.4,150.9l-4.7,0.4l-5-0.2l-4.9-0.2l-5,0.3l-4.9-0.1l-5,0.4l-4.9-0.6l-5.1,0.3l-0.2-5l0.4-4.9l-0.1-5l0.1-4.9
	l0.1-5l-0.2-4.9l0.2-5l-0.4-5.1h5.1l5,0.2l4.9-0.2l5,0.3l5,0.2h4.9l5-0.2l4.9-0.1l-0.1,4.9l-0.2,5l0.5,4.9l0.1,5l-0.2,4.9l-0.1,5
	l0.1,4.9L149.4,150.9z"/>
<path d="M71.7,177l-0.2,0.5l-0.6,0.1h-1.5l-0.7,0.2l-0.6-0.2l-3.1,0.3l-1-0.3c-0.9,0.3-1.5,0.5-1.9,0.5h-1.5l-0.9-0.3
	c0,0.2-0.1,0.3-0.4,0.3c-0.5,0-0.9,0.1-1.3,0.2c-0.4,0.1-0.8,0.2-1.2,0.2l-1-0.4l-0.8,0.4l-0.1,0.3h-0.4l-0.3,0.5l-0.2,3.2l0.2,0.5
	l-0.1,0.5v1.4l-0.2,1.5v0.4c0,0.2,0,0.4-0.1,0.5s-0.2,0.4-0.2,0.8l0.4,0.6l-0.1,0.8l-0.3,0.2c0,0.2,0.1,0.4,0.3,0.8l-0.3,0.5v0.6
	l-0.4,0.6l0.2,1.4l-0.1,2.1l-0.4,1.3c0.1,0.1,0.1,0.2,0.1,0.3s0,0.2-0.1,0.3s-0.1,0.2,0,0.4c0,0.1,0.1,0.2,0.1,0.3s-0.1,0.3-0.2,0.6
	c-0.2,0.3-0.2,0.5-0.2,0.6c0,0,0.1,0.3,0.2,0.8c-0.2,0.4-0.2,0.8-0.2,1s0,0.6,0.1,1.1c-0.2,0-0.4,0-0.5-0.1s-0.2-0.1-0.3-0.1
	c-0.3,0-0.4-0.5-0.4-1.4l0.1-0.8c0-0.3,0-0.7-0.1-1.2s-0.1-0.9-0.1-1.1l0.3-3.5c-0.3-0.4-0.4-0.7-0.4-0.7c0-0.2,0.1-0.3,0.2-0.5
	c-0.1-0.2-0.2-0.3-0.2-0.4c0-0.1,0.1-0.2,0.3-0.3c-0.1-0.3-0.2-0.5-0.2-0.7s0.1-0.4,0.2-0.7c0.1-0.3,0.2-0.5,0.2-0.5v-0.8
	c0-0.1,0.2-0.5,0.5-1.1c-0.3,0-0.4-0.2-0.4-0.7c0-0.8,0.1-1.2,0.3-1.3v-2.1l-0.3-1l0.3-2.1l-0.3-1.5l0.3-1.2
	c-0.1-0.5-0.4-0.7-0.7-0.7c-0.2,0-0.3,0.1-0.5,0.2l-0.7,0.1c-0.3,0-0.5,0.1-0.8,0.3l-0.6-0.1l-0.6,0.1v0.2h-0.4
	c-0.5,0-1-0.1-1.3-0.3l-0.1,0.3l-1-0.3l-2.9-0.1l-1.2,0.3c-0.9-0.8-1.3-1.2-1.3-1.5c0-0.1,0.1-0.3,0.2-0.8h0.8l3.5,0.7l0.8-0.3
	l2.3,0.1l2.2,0.2l1.5-0.6h0.4l0.4-1.1l0.7,0.2l0.2,0.5l0.3-0.1c0.3,0.3,0.6,0.6,1.2,0.9l0.8-0.3c0.5,0,1,0.2,1.4,0.7l0.3-0.4
	l1.9-0.4l1.2,0.1c0.3,0.1,0.6,0.2,0.9,0.2h0.2c0.3-0.1,0.6-0.2,0.8-0.2l0.7,0.1c0.2,0,0.2-0.1,0.3-0.2l1-0.1l1.1,0.3
	c0.2,0.2,0.4,0.2,0.7,0.1c0.3-0.1,0.5-0.2,0.6-0.2l0.9,0.2l2.5-0.1l1.1,0.2L71.7,177L71.7,177z M84.5,196.8c0.2,0.4,0.4,0.6,0.4,0.8
	c0,0.1-0.2,0.4-0.4,0.8c-0.3,0.4-0.5,0.9-0.7,1.3l-0.4,0.1l-0.5,1.1l-0.6,0.1l-1.3,0.9l-0.2,0.5l-0.4-0.1l-0.4,0.5h-1l-0.2,0.2
	l-0.3-0.1c-0.4,0-0.7,0.2-0.9,0.5l-0.3-0.2c-0.3,0.2-0.6,0.2-0.8,0.2c-0.4,0-0.7-0.1-0.9-0.2c-0.2,0-0.4,0.1-0.7,0.1l-0.3-0.2
	c-0.9-0.1-1.5-0.3-1.8-0.8v-0.6l-0.8-0.4l-0.2-0.5c-0.1-0.2-0.2-0.4-0.5-0.6v-0.4l-0.6-2.4l0.1-1.7l0.2-0.9v-1.1l0.3-0.9l-0.1-0.7
	c0.2-0.1,0.3-0.3,0.3-0.6c0.1-0.2,0.2-0.5,0.3-0.7c-0.1-0.3-0.1-0.7-0.2-1.2l0.4-0.4l-0.4-0.5c0.2-0.4,0.3-0.6,0.3-0.7l-0.2-1.5
	c0-0.4,0.1-0.7,0.2-1.1c0.2,0.3,0.4,0.4,0.7,0.4c0.1,0,0.4-0.1,0.9-0.2c0-0.1-0.1-0.2-0.1-0.3c0-0.2,0.1-0.4,0.4-0.6
	c0.3-0.8,0.6-1.6,1.1-2.3c0.3-0.2,0.5-0.6,0.5-1h0.2l0.2-0.5l0.3-0.1c0.1-0.2,0.2-0.5,0.5-0.7c0.4-0.1,0.8-0.5,1.3-1.1
	c0.1,0,0.2,0.1,0.4,0.1c0.1,0,0.2-0.2,0.4-0.6c0.6-0.2,0.9-0.3,0.9-0.3c0.2,0,0.3,0.1,0.4,0.3l0.5-0.1l0.2,0.2H81
	c0.2,0.5,0.5,0.8,1,0.8h0.2c0.1,0.2,0.2,0.4,0.3,0.5l-0.2,0.1c0.6,0.3,0.8,0.9,0.8,1.9l-0.2,0.6l0.2,1.4l-0.2,0.2l-0.6,1.5l-1,1.2
	l-0.1,0.7c-1.2,1-2.2,1.6-2.9,2c-0.1,0.2-0.2,0.3-0.3,0.3c-0.1,0-0.2,0-0.4-0.1l-1.1,0.8h-0.7L75,191l-0.4-0.2
	c-0.1-0.1-0.5-0.1-1-0.2c-0.5,0.5-0.8,1.1-0.8,1.8l-0.3,0.4c-0.1,0.6-0.2,1.1-0.2,1.3l-0.3,0.1l0.3,1.8l-0.3,0.2l0.1,0.6l-0.1,0.7
	c0,0.1,0,0.4,0.1,0.9s0.2,0.8,0.4,0.9c-0.1,0.2,0.1,0.5,0.5,0.8s0.8,0.6,1.3,0.7v0.3l1.3,0.2l1.9,0.1l1.2-0.1
	c0.5-0.4,0.9-0.6,1.1-0.7l0.4-0.6h0.5l0.1-0.2c0.7-0.2,1.1-0.4,1.2-0.5s0.1-0.2,0.1-0.3c0.1-0.2,0.2-0.3,0.4-0.3l0.2-0.3
	c0.7-0.1,1.2-0.6,1.4-1.4C84,196.8,84.2,196.8,84.5,196.8z M80.4,185.3c0.1,0,0.3-0.2,0.7-0.6l0.2-0.6c0.4-0.7,0.6-1.1,0.7-1.3
	s0.1-0.4,0.1-0.7s-0.1-0.8-0.3-1.5l-1-0.3c-0.3,0.1-0.4,0.1-0.5,0.1l-0.3-0.1c-0.2,0-0.4,0.1-0.5,0.4c-0.3,0-0.7,0.1-1.3,0.4
	l-0.2,0.3c-0.1,0-0.1-0.1-0.2-0.1s-0.1,0-0.1,0s-0.1,0-0.1,0.1l-0.1,0.1c0,0-0.1,0.1-0.1,0.2c0,0.1-0.1,0.1-0.1,0.2
	c0,0.1-0.1,0.1-0.1,0.2s-0.1,0.2-0.3,0.4l-0.4,0.4l-0.7,1.3l-0.4,0.3c-0.1,0.1-0.2,0.3-0.3,0.6c-0.1,0.3-0.5,1.1-1.3,2.3l0.3,0.2
	l0.2,0.4l0.8,0.2c0.5-0.3,1-0.5,1.5-0.7l0.2-0.3c0.2,0.1,0.3,0.1,0.4,0.1c0.2,0,0.3-0.1,0.5-0.3l0.6-0.1l0.4-0.6H79l0.2-0.5
	c0.4,0,0.8-0.2,1.2-0.6C80.4,185.6,80.4,185.3,80.4,185.3z M93.4,182.5l3.4,0.1l3.3-0.1l0.8,0.1l0.3-0.1h1.8c0.3,0,0.5,0.1,0.5,0.4
	c0,0.3-0.3,0.6-0.8,0.7c-0.1-0.1-0.2-0.1-0.4-0.1c-0.2,0-0.4,0.1-0.6,0.2l-0.7-0.1l-1.3,0.1c-0.6,0.3-1.2,0.5-1.9,0.5l-0.9-0.2
	l-0.5,0.5H96v-0.3l-0.8,0.4h-0.4l-0.2,0.4c-0.3-0.1-0.8-0.1-1.5-0.2c-0.1,0.2-0.1,0.3-0.2,0.3s-0.2-0.1-0.3-0.2l-0.7,0.1l-0.5,0.5
	l-0.2,2.4l0.1,1.5l-0.2,1.9l0.1,2.1l0.2,1v0.9l0.6,1.2v0.2c0,0.6,0.3,1.1,1,1.6l0.2,0.4L94,199l0.7,0.7l1.9,0.3l2.4-0.6l0.7,0.2
	l1.7-0.8l0.7,0.1c0.2,0.2,0.3,0.4,0.3,0.6c0,0.2-0.2,0.5-0.6,0.8l-0.4-0.1l-0.8,0.7l-1.7,0.2l-0.6,0.3l-0.6-0.3
	c-0.6,0.3-1.1,0.4-1.8,0.4l-1-0.2h-0.5l-1.8-1.1l-0.8-1.2l-0.6-0.7l-0.9-2.4l-0.4-2.2l0.2-0.9l-0.4-0.5l0.2-0.6l-0.2-0.9l0.5-0.4
	l-0.2-0.5l0.1-0.6l-0.2-0.7l0.1-0.9l-0.1-0.5l0.2-0.1v-1.8c-0.1-0.4-0.2-0.7-0.4-0.7c-0.1,0-0.2,0.1-0.3,0.2l-0.6-0.2l-0.8,0.2
	l-0.8-0.6h-0.4c-0.4,0-0.6-0.2-0.6-0.7l0.1-0.8l-0.3-0.2l0.2-0.4l0.7,0.1l0.6-0.1l0.8,0.2h2.1l0.1-1.1v-1.1l-0.3-0.9l0.4-0.3
	c0.1-0.2,0.1-0.3,0.1-0.4c0-0.2-0.1-0.4-0.4-0.5l0.1-1.9l-0.4-0.6l0.1-0.4c-0.3-0.1-0.5-0.2-0.5-0.4l0.3-1.3
	c0.3-0.4,0.4-0.6,0.5-0.7c1,0.5,1.5,0.8,1.5,0.9v0.1l-0.2,0.5c0.2,0.5,0.3,0.8,0.3,1.1v0.1c-0.1,0.3-0.2,0.5-0.2,0.7
	s0.1,0.3,0.2,0.4l-0.1,0.4l0.1,0.5l-0.4,0.7l0.3,1.2l-0.2,1.5l0.2,0.3l-0.3,0.4l0.4,1.2h0.9L93.4,182.5z M123.4,181.7l-0.2,0.6
	l-1.5,0.2l-0.9,0.7l-0.6,0.1l-0.8,0.5l-0.8,0.4c-0.4,0.3-0.7,0.6-0.9,0.6v0.2l-0.7,0.4l-0.5,0.8H116l-0.3,0.8l-0.6,0.4
	c-0.2,0.1-0.4,0.3-0.5,0.5l-0.5,0.9c-0.4,0.2-0.6,0.6-0.7,1.3l-0.2-0.1l-0.1,0.3l-0.4,0.2l-0.3,0.9c-0.4,0.5-0.5,0.9-0.5,1.1
	l-0.5,0.2v1.1c-0.1,0.1-0.2,0.3-0.2,0.5l0.1,0.2l-0.5,0.2l0.2,0.4c-0.1,0.3-0.3,0.9-0.8,1.8l0.2,0.6l-0.5,0.8
	c0.1,0.3,0.1,0.6,0.1,0.8l-0.1,0.8l0.2,0.9c0,0.1,0.1,0.1,0.2,0.3l0.4,0.4c-0.2,0.4-0.4,0.7-0.6,0.9l-0.7-0.2l0.1,0.4l-1.1-0.2v-0.7
	l-0.2-0.4l0.2-0.8l-0.2-0.3l0.1-1.7l-0.1-1.1c-0.2-0.1-0.3-0.2-0.3-0.3s0.1-0.3,0.3-0.6v-0.7c0-0.4,0-0.7-0.1-0.9l0.2-0.2l-0.2-0.9
	l0.2-0.8l-0.2-0.5l0.2-1.3l-0.2-0.4l0.2-0.5l-0.3-1l0.1-0.8c0-0.2,0-0.5-0.1-0.9l0.2-0.2l-0.3-1.7l-0.4-0.2l0.4-0.9
	c-0.3-0.5-0.5-1-0.5-1.7v-0.7c-0.2-0.2-0.2-0.3-0.3-0.5c0.2-0.3,0.6-0.6,1.2-0.8l0.4,0.1c0.1,0.4,0.2,0.8,0.5,1.2l-0.1,1.2l0.5,3.8
	c0,0.2-0.1,0.5-0.3,0.7l0.2,1.1l-0.2,0.8l0.2,0.8l-0.1,0.6l0.4,0.8l-0.2,0.1l0.2,1.1l0.4,0.1l0.2-1c0-0.1,0.2-0.4,0.6-0.9
	c0.4-0.4,0.6-0.8,0.6-1.2v-0.3l0.3-0.1c0.1,0,0.1-0.1,0.1-0.2c0-0.1,0.1-0.2,0.2-0.2h0.2l0.3-1l0.8-0.5l0.1-0.3h0.3l-0.2-0.6
	l0.8-0.3l0.1-0.6l0.7-0.1c0.4-0.3,0.6-0.6,0.7-0.9l0.5-0.1c0.1-0.1,0.4-0.4,0.9-0.9c0.1,0,0.2-0.1,0.2-0.1l0.8-0.4l0.2-0.4l0.4-0.2
	c0.9-0.6,1.4-0.9,1.8-0.9h0.2c0.3,0,0.5-0.1,0.7-0.2l0.4,0.1c0.2-0.2,0.4-0.2,0.6-0.2C123.1,181.5,123.4,181.6,123.4,181.7z
	 M132,169.5c-0.1,0.3-0.4,0.6-0.9,0.8v0.3l-0.4,0.5c-0.1,0.2-0.3,0.3-0.4,0.3c-0.1,0-0.1,0-0.3-0.1l-1.3,1.6l-0.3,0.5l-1.2,0.4
	l-0.6,0.9L126,175c-0.2,0.1-0.5,0.4-1.1,0.9l-0.3-0.2l-0.1-0.6l1.2-0.5c0.2-0.8,0.4-1.3,0.6-1.4s0.4-0.2,0.4-0.2v-0.2l0.2-0.1
	l0.1,0.1l0.1-0.4h0.2l-0.2-0.4h0.8v-0.7l0.4-0.1l0.2-0.4l0.4-0.1l0.4-0.7c0.1,0,0.2-0.1,0.3-0.3h0.3l0.1-0.5c0.3-0.3,0.5-0.6,0.6-1
	C131.4,168.4,131.9,168.9,132,169.5z M137,194.6l-0.1,0.5l-0.5,0.3l-0.2,0.6l-0.7,0.2c-0.2,0.6-0.4,1.1-0.7,1.2l-0.6,0.2l-0.5,0.6
	c-0.1,0.1-0.4,0.4-0.9,0.9h-0.3c-0.2,0.3-0.6,0.5-1.1,0.6c-0.4,0.4-0.6,0.7-0.6,0.8c-0.2,0.2-0.6,0.3-0.9,0.4s-0.6,0.1-0.7,0.2
	l-0.2,0.3h-0.8l-0.4,0.3l-1.2-0.9l-0.7-1.6l-0.1-2.6l-0.2-0.5l0.5-4.1l0.3-0.2l-0.2-2.6c0-0.3,0-0.6,0.1-0.9
	c0.1-0.3,0.2-0.6,0.3-1.1l0.2-0.1c0-0.5-0.1-0.9-0.3-1.4l0.2-0.7v-0.9l0.2-0.3c0-0.2-0.1-0.5-0.2-0.8s-0.1-0.5-0.1-0.5
	c0-0.3,0.1-0.4,0.2-0.4l0.1,0.1c-0.2-0.5-0.3-0.9-0.3-1c0-0.2,0.1-0.4,0.3-0.4c0.1,0,0.2,0,0.3,0.1c0.2,0.1,0.3,0.1,0.4,0.1
	c0,0,0.1,0,0.2-0.1c0-0.3,0.1-0.4,0.3-0.4c0.2,0,0.3,0,0.3,0.1s0.1,0.4,0.1,0.9l0.5,0.2l-0.4,0.6l-0.5,3.2l0.4,0.8
	c0,0.4-0.2,0.7-0.5,0.9v0.8l0.2,0.6l-0.6,2.1l0.1,0.2l-0.2,1.7v1.2l-0.4,0.8l0.1,0.7l-0.1,1.1c0,0.9,0.1,1.7,0.4,2.2l-0.1,0.3
	l0.4,0.3l0.5-0.1l0.6,0.2l0.7-0.3c0.2-0.1,0.5-0.3,0.9-0.4l0.3-0.3l0.1,0.1l0.3-0.4l0.5-0.1c0.4-0.3,0.8-0.5,1.2-0.7
	c0.1-0.2,0.4-0.3,0.7-0.4l0.3-0.5l0.6-0.1l-0.1-0.5h0.2l0.1-0.3l1.1-0.5l0.1-0.6l0.9,0.1C136.9,194.4,136.9,194.5,137,194.6z
	 M157,197.4l-0.3,0.4c-0.1,0.1-0.3,0.6-0.7,1.5l-0.7,0.5l0.1,0.3h-0.7l-0.6,0.7h-0.9l-0.6,0.3c-0.2,0-0.3,0.1-0.5,0.3
	c-0.2-0.1-0.4-0.1-0.7-0.1c-0.2,0-0.4,0.1-0.6,0.1v0.3l-0.9-0.1l-0.7,0.1l-0.7-0.1l-0.1,0.1l-0.2-0.1l-0.4,0.1h-0.3
	c-0.2,0-0.5,0-0.7,0.1l-0.5-0.2l-0.4,0.3l-0.2-0.2l-0.4,0.2c-0.4-0.2-0.8-0.4-1.1-0.4c-0.1,0-0.2,0.1-0.4,0.1
	c-0.2-0.1-0.5-0.2-0.9-0.2l-1.1-0.1c-0.3,0-0.6,0-0.8,0.1l-0.1-0.2l-0.4,0.3c-0.1-0.1-0.2-0.2-0.4-0.2L140,201
	c-1-0.1-1.5-0.8-1.5-2.2l1.1-0.1l-0.1-0.4l0.2-0.3l0.1,0.3h0.3v0.2l0.5-0.2c0.3,0.1,0.4,0.2,0.4,0.4c0,0.1-0.1,0.2-0.1,0.4l0.4,0.1
	v0.8l1.3,0.2l0.5,0.4l0.1-0.2l6.4-0.4l2.2-0.4l0.1-0.2l0.5-0.1l0.1-0.2c0.8-0.1,1.4-0.4,2-0.8l0.1,0.1l0.1-0.3l0.4-0.3l0.1-0.2
	l-0.2-0.3l0.1-0.4l-0.6-0.5l-0.1-0.4c-0.3-0.1-0.4-0.2-0.5-0.3l-0.2,0.1l-0.5-0.5H153l-0.2-0.3h-0.5c-0.1-0.3-0.3-0.4-0.6-0.4
	l-0.3,0.1c-0.6,0-1.1-0.2-1.5-0.5h-0.5l-0.6-0.4l-0.3,0.2l-0.1-0.2h-0.3l-0.6-0.5l-1.5-0.6l-0.6-0.5l-1.7-0.3l-0.1-0.1l-1.4-1
	l-0.6-1.6l-0.5-0.8l-0.1-2.3l0.1-0.2c0-0.6,0.2-1.2,0.5-1.7c0.6-0.4,0.9-0.7,0.9-1.1l0.3,0.1c0.1-0.4,0.4-0.8,0.9-1.2l0.6-0.5
	l2.9-1.2l1.5-0.3l1.4-0.4l2.2,0.1l0.1,0.3h0.1c0.3,0,0.5,0.1,0.7,0.3v0.4l0.6,0.4c-0.2,0.8-0.3,1.2-0.3,1.3c0,0.3-0.1,0.4-0.4,0.4
	c-0.1,0-0.4-0.4-0.7-1.1l-1.3-0.1l-0.3,0.1c-0.5-0.4-0.8-0.6-0.9-0.6c-0.1,0-0.1,0.1-0.1,0.1l-0.5,0.3c-0.6,0-1,0.1-1.3,0.4
	c-0.6,0.1-1.1,0.3-1.3,0.6h-0.6l-0.4,0.3c-0.1,0.1-0.4,0.2-1,0.3l-0.2,0.2l-0.3,0.1l-0.7,0.7l-0.5,0.7c-0.5,0.3-0.7,0.5-0.7,0.6
	l-0.5,2.1l0.2,0.1v0.1c0,0.6,0.3,1,0.8,1.4v0.2l1.3,0.8h0.3l0.7,0.7h1l0.6,0.5l1.1,0.1l0.3,0.3l2.1,0.7c0,0.2,0.1,0.3,0.4,0.3
	c0.4,0,0.8,0.1,1.1,0.3s0.7,0.3,1,0.4l0.1,0.2l0.4,0.2h0.9l0.9,0.6c0.1,0.4,0.3,0.7,0.7,0.9l-0.1,0.1l0.2,0.3l0.4,0.1l-0.2,0.4
	C156.8,196.9,156.9,197.1,157,197.4z"/>
</svg>
