<?xml version="1.0" encoding="utf-8"?>
<!-- Generator: Adobe Illustrator 24.3.0, SVG Export Plug-In . SVG Version: 6.00 Build 0)  -->
<svg version="1.1" id="Layer_2_1_" xmlns="http://www.w3.org/2000/svg" xmlns:xlink="http://www.w3.org/1999/xlink" x="0px" y="0px"
	 viewBox="0 0 220 220" style="enable-background:new 0 0 220 220;" xml:space="preserve">
<style type="text/css">
	.st0{fill:none;stroke:#000000;stroke-width:2;stroke-miterlimit:10;}
</style>
<path class="st0" d="M210,39.1V210H10V10h164.9L210,39.1z M175,10.1v27c0,1.1,0.9,2,2,2h33 M110,64.8h71.9 M110,101h71.9 M38,137.2
	h143.9 M38,173.5h143.9 M41.7,98.6c1.2-7.1,5.5-28.2,17.1-36.5c-5-3.3-8.3-8.9-8.3-15.3c0-10.4,8.6-18.7,19.1-18.2
	c9.2,0.5,16.7,8.1,17.1,17.3c0.3,6.8-3.1,12.7-8.3,16.1c11.5,8.3,15.9,29.4,17.1,36.5c0.2,1.2-0.7,2.3-2,2.3H43.7
	C42.4,100.9,41.5,99.8,41.7,98.6z"/>
</svg>
