<?xml version="1.0" encoding="utf-8"?>
<!-- Generator: Adobe Illustrator 24.3.0, SVG Export Plug-In . SVG Version: 6.00 Build 0)  -->
<svg version="1.1" id="Layer_1" xmlns="http://www.w3.org/2000/svg" xmlns:xlink="http://www.w3.org/1999/xlink" x="0px" y="0px"
	 viewBox="0 0 220 220" style="enable-background:new 0 0 220 220;" xml:space="preserve">
<style type="text/css">
	.st0{fill:none;stroke:#000000;stroke-width:2;stroke-miterlimit:10;}
</style>
<path class="st0" d="M110,61.9h45c52.4,0,79.8,153.6,39.3,147.9c-36.3-5.1-55.5-49.5-75.7-50H110h-8.6c-20.2,0.4-39.3,44.8-75.7,50
	C-14.8,215.5,10,61.9,65,61.9H110z M87.2,108.1v10.4c0,1.1-0.9,2-2,2H66.6v18.6c0,1.1-0.9,2-2,2H54.2c-1.1,0-2-0.9-2-2v-18.6H33.7
	c-1.1,0-2-0.9-2-2v-10.4c0-1.1,0.9-2,2-2h18.6V87.6c0-1.1,0.9-2,2-2h10.4c1.1,0,2,0.9,2,2v18.6l18.5-0.1
	C86.3,106.1,87.2,107,87.2,108.1z M160.5,85.6c4.4,0,8,3.6,8,8s-3.6,8-8,8s-8-3.6-8-8C152.6,89.1,156.2,85.6,160.5,85.6z
	 M180.4,105.2c4.4,0,8,3.6,8,8s-3.6,8-8,8s-8-3.6-8-8C172.4,108.7,176,105.2,180.4,105.2z M140.8,105.4c4.4,0,8,3.6,8,8s-3.6,8-8,8
	s-8-3.6-8-8S136.4,105.4,140.8,105.4z M160.5,124.8c4.4,0,8,3.6,8,8s-3.6,8-8,8s-8-3.6-8-8S156.2,124.8,160.5,124.8z M110,61.9
	c0,0,13.9-19.3,0-26c-21.7-10.5,0-26,0-26"/>
</svg>
