<?xml version="1.0" encoding="utf-8"?>
<!-- Generator: Adobe Illustrator 24.3.0, SVG Export Plug-In . SVG Version: 6.00 Build 0)  -->
<svg version="1.1"
	 id="svg8" xmlns:cc="http://creativecommons.org/ns#" xmlns:dc="http://purl.org/dc/elements/1.1/" xmlns:inkscape="http://www.inkscape.org/namespaces/inkscape" xmlns:rdf="http://www.w3.org/1999/02/22-rdf-syntax-ns#" xmlns:sodipodi="http://sodipodi.sourceforge.net/DTD/sodipodi-0.dtd" xmlns:svg="http://www.w3.org/2000/svg"
	 xmlns="http://www.w3.org/2000/svg" xmlns:xlink="http://www.w3.org/1999/xlink" x="0px" y="0px" viewBox="0 0 220 220"
	 style="enable-background:new 0 0 220 220;" xml:space="preserve">
<style type="text/css">
	.st0{fill:none;stroke:#000000;stroke-width:2;stroke-miterlimit:11.3386;}
</style>
<sodipodi:namedview  bordercolor="#666666" borderopacity="1.0" id="base" inkscape:current-layer="layer1" inkscape:cx="435.56983" inkscape:cy="742.29551" inkscape:document-rotation="0" inkscape:document-units="mm" inkscape:object-nodes="true" inkscape:object-paths="true" inkscape:pageopacity="0.0" inkscape:pageshadow="2" inkscape:snap-nodes="true" inkscape:snap-object-midpoints="true" inkscape:window-height="1017" inkscape:window-maximized="1" inkscape:window-width="1920" inkscape:window-x="1358" inkscape:window-y="-8" inkscape:zoom="0.98994949" pagecolor="#ffffff" showgrid="false">
	</sodipodi:namedview>
<path class="st0" d="M210,110c0,55.2-44.7,100-100,100l0,0c-55.2,0-100-44.7-100-100l0,0c0-55.2,44.7-100,100-100S210,54.8,210,110z
	 M22.5,61.6c0,0,14.3,14.1,87.5,14.1s87.5-14.1,87.5-14.1 M22.5,158.4c0,0,14.3-14.1,87.5-14.1s87.5,14.1,87.5,14.1 M10,110h200
	 M110,10v200 M110,10c0,0-50,13.4-50,100s50,100,50,100 M110,210c0,0,50-13.4,50-100s-50-100-50-100"/>
</svg>
